<svg width="28" height="27" viewBox="0 0 28 27" fill="none" xmlns="http://www.w3.org/2000/svg">
<path d="M14 26.5C12.3568 26.5 10.8177 26.1858 9.38263 25.5573C7.94758 24.9288 6.69875 24.0797 5.63615 23.0102C4.57355 21.9406 3.73005 20.6836 3.10563 19.2392C2.48122 17.7947 2.16901 16.2455 2.16901 14.5916C2.16901 12.9377 2.48122 11.3885 3.10563 9.94402C3.73005 8.49958 4.57355 7.24258 5.63615 6.17303C6.69875 5.10348 7.94758 4.25445 9.38263 3.62595C10.8177 2.99746 12.3568 2.68321 14 2.68321C15.6432 2.68321 17.1823 2.99746 18.6174 3.62595C20.0524 4.25445 21.3013 5.10348 22.3638 6.17303C23.4264 7.24258 24.27 8.49958 24.8944 9.94402C25.5188 11.3885 25.831 12.9377 25.831 14.5916C25.831 16.2455 25.5188 17.7947 24.8944 19.2392C24.27 20.6836 23.4264 21.9406 22.3638 23.0102C21.3013 24.0797 20.0524 24.9288 18.6174 25.5573C17.1823 26.1858 15.6432 26.5 14 26.5ZM17.6808 20.1489L19.5211 18.2964L15.3146 14.0623V7.97583H12.6854V15.1209L17.6808 20.1489ZM5.58685 0.5L7.42723 2.35242L1.84038 7.97583L0 6.12341L5.58685 0.5ZM22.4131 0.5L28 6.12341L26.1596 7.97583L20.5728 2.35242L22.4131 0.5ZM14 23.8537C16.5634 23.8537 18.7379 22.955 20.5235 21.1578C22.3091 19.3605 23.2019 17.1718 23.2019 14.5916C23.2019 12.0115 22.3091 9.82273 20.5235 8.02545C18.7379 6.22816 16.5634 5.32952 14 5.32952C11.4366 5.32952 9.26213 6.22816 7.47653 8.02545C5.69092 9.82273 4.79812 12.0115 4.79812 14.5916C4.79812 17.1718 5.69092 19.3605 7.47653 21.1578C9.26213 22.955 11.4366 23.8537 14 23.8537Z" fill="#1C1B1F"/>
</svg>
