<svg width="24" height="24" viewBox="0 0 24 24" fill="none" xmlns="http://www.w3.org/2000/svg">
<mask id="mask0_25_49" style="mask-type:alpha" maskUnits="userSpaceOnUse" x="0" y="0" width="24" height="24">
<rect width="24" height="24" fill="#D9D9D9"/>
</mask>
<g mask="url(#mask0_25_49)">
<path d="M5 21C4.45 21 3.97917 20.8042 3.5875 20.4125C3.19583 20.0208 3 19.55 3 19V6.5C3 6.25 3.04167 6.025 3.125 5.825C3.20833 5.625 3.31667 5.43333 3.45 5.25L4.85 3.55C4.98333 3.36667 5.15 3.22917 5.35 3.1375C5.55 3.04583 5.76667 3 6 3H18C18.2333 3 18.45 3.04583 18.65 3.1375C18.85 3.22917 19.0167 3.36667 19.15 3.55L20.55 5.25C20.6833 5.43333 20.7917 5.625 20.875 5.825C20.9583 6.025 21 6.25 21 6.5V19C21 19.55 20.8042 20.0208 20.4125 20.4125C20.0208 20.8042 19.55 21 19 21H5ZM5.4 6H18.6L17.75 5H6.25L5.4 6ZM5 8V19H19V8H5ZM12 18L16 14L14.6 12.6L13 14.2V10H11V14.2L9.4 12.6L8 14L12 18Z" fill="#1C1B1F" fill-opacity="0.72"/>
</g>
</svg>
