<svg width="37" height="34" viewBox="0 0 37 34" fill="none" xmlns="http://www.w3.org/2000/svg">
<mask id="mask0_3217_305" style="mask-type:alpha" maskUnits="userSpaceOnUse" x="0" y="0" width="37" height="34">
<rect width="37" height="34" fill="#D9D9D9"/>
</mask>
<g mask="url(#mask0_3217_305)">
<path d="M7.70833 31.1668C6.86042 31.1668 6.13455 30.8894 5.53073 30.3345C4.92691 29.7797 4.625 29.1127 4.625 28.3335V8.50016C4.625 7.721 4.92691 7.05398 5.53073 6.49912C6.13455 5.94426 6.86042 5.66683 7.70833 5.66683H9.25V2.8335H12.3333V5.66683H24.6667V2.8335H27.75V5.66683H29.2917C30.1396 5.66683 30.8655 5.94426 31.4693 6.49912C32.0731 7.05398 32.375 7.721 32.375 8.50016V28.3335C32.375 29.1127 32.0731 29.7797 31.4693 30.3345C30.8655 30.8894 30.1396 31.1668 29.2917 31.1668H7.70833ZM7.70833 28.3335H29.2917V14.1668H7.70833V28.3335ZM7.70833 11.3335H29.2917V8.50016H7.70833V11.3335ZM18.5 19.8335C18.0632 19.8335 17.697 19.6977 17.4016 19.4262C17.1061 19.1547 16.9583 18.8182 16.9583 18.4168C16.9583 18.0154 17.1061 17.679 17.4016 17.4075C17.697 17.1359 18.0632 17.0002 18.5 17.0002C18.9368 17.0002 19.303 17.1359 19.5984 17.4075C19.8939 17.679 20.0417 18.0154 20.0417 18.4168C20.0417 18.8182 19.8939 19.1547 19.5984 19.4262C19.303 19.6977 18.9368 19.8335 18.5 19.8335ZM12.3333 19.8335C11.8965 19.8335 11.5304 19.6977 11.2349 19.4262C10.9394 19.1547 10.7917 18.8182 10.7917 18.4168C10.7917 18.0154 10.9394 17.679 11.2349 17.4075C11.5304 17.1359 11.8965 17.0002 12.3333 17.0002C12.7701 17.0002 13.1363 17.1359 13.4318 17.4075C13.7273 17.679 13.875 18.0154 13.875 18.4168C13.875 18.8182 13.7273 19.1547 13.4318 19.4262C13.1363 19.6977 12.7701 19.8335 12.3333 19.8335ZM24.6667 19.8335C24.2299 19.8335 23.8637 19.6977 23.5682 19.4262C23.2727 19.1547 23.125 18.8182 23.125 18.4168C23.125 18.0154 23.2727 17.679 23.5682 17.4075C23.8637 17.1359 24.2299 17.0002 24.6667 17.0002C25.1035 17.0002 25.4696 17.1359 25.7651 17.4075C26.0606 17.679 26.2083 18.0154 26.2083 18.4168C26.2083 18.8182 26.0606 19.1547 25.7651 19.4262C25.4696 19.6977 25.1035 19.8335 24.6667 19.8335ZM18.5 25.5002C18.0632 25.5002 17.697 25.3644 17.4016 25.0929C17.1061 24.8213 16.9583 24.4849 16.9583 24.0835C16.9583 23.6821 17.1061 23.3456 17.4016 23.0741C17.697 22.8026 18.0632 22.6668 18.5 22.6668C18.9368 22.6668 19.303 22.8026 19.5984 23.0741C19.8939 23.3456 20.0417 23.6821 20.0417 24.0835C20.0417 24.4849 19.8939 24.8213 19.5984 25.0929C19.303 25.3644 18.9368 25.5002 18.5 25.5002ZM12.3333 25.5002C11.8965 25.5002 11.5304 25.3644 11.2349 25.0929C10.9394 24.8213 10.7917 24.4849 10.7917 24.0835C10.7917 23.6821 10.9394 23.3456 11.2349 23.0741C11.5304 22.8026 11.8965 22.6668 12.3333 22.6668C12.7701 22.6668 13.1363 22.8026 13.4318 23.0741C13.7273 23.3456 13.875 23.6821 13.875 24.0835C13.875 24.4849 13.7273 24.8213 13.4318 25.0929C13.1363 25.3644 12.7701 25.5002 12.3333 25.5002ZM24.6667 25.5002C24.2299 25.5002 23.8637 25.3644 23.5682 25.0929C23.2727 24.8213 23.125 24.4849 23.125 24.0835C23.125 23.6821 23.2727 23.3456 23.5682 23.0741C23.8637 22.8026 24.2299 22.6668 24.6667 22.6668C25.1035 22.6668 25.4696 22.8026 25.7651 23.0741C26.0606 23.3456 26.2083 23.6821 26.2083 24.0835C26.2083 24.4849 26.0606 24.8213 25.7651 25.0929C25.4696 25.3644 25.1035 25.5002 24.6667 25.5002Z" fill="#34A853"/>
</g>
</svg>
