<svg width="35" height="32" viewBox="0 0 35 32" fill="none" xmlns="http://www.w3.org/2000/svg">
<mask id="mask0_25_69" style="mask-type:alpha" maskUnits="userSpaceOnUse" x="0" y="0" width="35" height="32">
<rect width="35" height="32" fill="#D9D9D9"/>
</mask>
<g mask="url(#mask0_25_69)">
<path d="M7.29167 25.3332H9.33333L21.9115 13.8332L19.8698 11.9665L7.29167 23.4665V25.3332ZM28.1458 11.8998L21.9479 6.29984L23.9896 4.43317C24.5486 3.92206 25.2352 3.6665 26.0495 3.6665C26.8637 3.6665 27.5503 3.92206 28.1094 4.43317L30.151 6.29984C30.7101 6.81095 31.0017 7.42761 31.026 8.14984C31.0503 8.87206 30.783 9.48873 30.224 9.99984L28.1458 11.8998ZM26.0312 13.8665L10.5729 27.9998H4.375V22.3332L19.8333 8.19984L26.0312 13.8665Z" fill="#1C1B1F" fill-opacity="0.72"/>
</g>
</svg>
