<svg width="21" height="23" viewBox="0 0 21 23" fill="none" xmlns="http://www.w3.org/2000/svg">
<path d="M2.33333 22.25C1.69167 22.25 1.14236 22.0134 0.685417 21.5401C0.228472 21.0668 0 20.4979 0 19.8333V2.91667C0 2.25208 0.228472 1.68316 0.685417 1.2099C1.14236 0.736632 1.69167 0.5 2.33333 0.5H18.6667C19.3083 0.5 19.8576 0.736632 20.3146 1.2099C20.7715 1.68316 21 2.25208 21 2.91667V19.8333C21 20.4979 20.7715 21.0668 20.3146 21.5401C19.8576 22.0134 19.3083 22.25 18.6667 22.25H2.33333ZM2.33333 19.8333H18.6667V16.2083H15.1667C14.5833 16.9736 13.8882 17.5677 13.0813 17.9906C12.2743 18.4135 11.4139 18.625 10.5 18.625C9.58611 18.625 8.72569 18.4135 7.91875 17.9906C7.11181 17.5677 6.41667 16.9736 5.83333 16.2083H2.33333V19.8333ZM10.5 16.2083C11.2389 16.2083 11.9097 15.9868 12.5125 15.5437C13.1153 15.1007 13.5333 14.5167 13.7667 13.7917H18.6667V2.91667H2.33333V13.7917H7.23333C7.46667 14.5167 7.88472 15.1007 8.4875 15.5437C9.09028 15.9868 9.76111 16.2083 10.5 16.2083Z" fill="#0B57D0"/>
</svg>
