<svg width="25" height="30" viewBox="0 0 25 30" fill="none" xmlns="http://www.w3.org/2000/svg">
<g filter="url(#filter0_d_3217_308)">
<mask id="mask0_3217_308" style="mask-type:alpha" maskUnits="userSpaceOnUse" x="0" y="0" width="25" height="24">
<path d="M1 0.5H24V23.5H1V0.5Z" fill="#D9D9D9" stroke="white"/>
</mask>
<g mask="url(#mask0_3217_308)">
<path d="M9.06024 14.4075L9.19035 14.5H9.35H15.65H15.8097L15.9398 14.4075C16.7514 13.8303 17.3845 13.1125 17.8309 12.2561C18.2771 11.4 18.5 10.4789 18.5 9.5C18.5 7.83651 17.9157 6.4086 16.7536 5.24645C15.5914 4.08429 14.1635 3.5 12.5 3.5C10.8365 3.5 9.4086 4.08429 8.24645 5.24645C7.08429 6.4086 6.5 7.83651 6.5 9.5C6.5 10.4789 6.72287 11.4 7.16912 12.2561C7.61554 13.1125 8.24859 13.8303 9.06024 14.4075ZM12.5 21.5C12.0837 21.5 11.7397 21.3576 11.4411 21.0589C11.2711 20.889 11.1517 20.7043 11.0804 20.5H13.9196C13.8483 20.7043 13.7289 20.889 13.5589 21.0589C13.2603 21.3576 12.9163 21.5 12.5 21.5ZM9 18.5V17.5H16V18.5H9ZM8.88964 15.5C7.86656 14.8678 7.05302 14.035 6.44371 12.9969C5.81434 11.9246 5.5 10.7622 5.5 9.5C5.5 7.54776 6.17755 5.90455 7.54105 4.54105C8.90455 3.17755 10.5478 2.5 12.5 2.5C14.4522 2.5 16.0954 3.17755 17.4589 4.54105C18.8224 5.90455 19.5 7.54776 19.5 9.5C19.5 10.7622 19.1857 11.9246 18.5563 12.9969C17.947 14.035 17.1334 14.8678 16.1104 15.5H8.88964Z" fill="#FBBC04" stroke="#FBBC04"/>
</g>
</g>
<defs>
<filter id="filter0_d_3217_308" x="1" y="2" width="23" height="28" filterUnits="userSpaceOnUse" color-interpolation-filters="sRGB">
<feFlood flood-opacity="0" result="BackgroundImageFix"/>
<feColorMatrix in="SourceAlpha" type="matrix" values="0 0 0 0 0 0 0 0 0 0 0 0 0 0 0 0 0 0 127 0" result="hardAlpha"/>
<feOffset dy="4"/>
<feGaussianBlur stdDeviation="2"/>
<feComposite in2="hardAlpha" operator="out"/>
<feColorMatrix type="matrix" values="0 0 0 0 0 0 0 0 0 0 0 0 0 0 0 0 0 0 0.25 0"/>
<feBlend mode="normal" in2="BackgroundImageFix" result="effect1_dropShadow_3217_308"/>
<feBlend mode="normal" in="SourceGraphic" in2="effect1_dropShadow_3217_308" result="shape"/>
</filter>
</defs>
</svg>
