<svg width="25" height="27" viewBox="0 0 25 27" fill="none" xmlns="http://www.w3.org/2000/svg">
<mask id="mask0_29_2129" style="mask-type:alpha" maskUnits="userSpaceOnUse" x="0" y="0" width="25" height="27">
<rect y="0.5" width="25" height="26" fill="#D9D9D9"/>
</mask>
<g mask="url(#mask0_29_2129)">
<path d="M12.5 22.1668C11.927 22.1668 11.4366 21.9547 11.0286 21.5304C10.6206 21.1061 10.4166 20.596 10.4166 20.0002C10.4166 19.4043 10.6206 18.8943 11.0286 18.47C11.4366 18.0456 11.927 17.8335 12.5 17.8335C13.0729 17.8335 13.5633 18.0456 13.9713 18.47C14.3793 18.8943 14.5833 19.4043 14.5833 20.0002C14.5833 20.596 14.3793 21.1061 13.9713 21.5304C13.5633 21.9547 13.0729 22.1668 12.5 22.1668ZM12.5 15.6668C11.927 15.6668 11.4366 15.4547 11.0286 15.0304C10.6206 14.6061 10.4166 14.096 10.4166 13.5002C10.4166 12.9043 10.6206 12.3943 11.0286 11.97C11.4366 11.5456 11.927 11.3335 12.5 11.3335C13.0729 11.3335 13.5633 11.5456 13.9713 11.97C14.3793 12.3943 14.5833 12.9043 14.5833 13.5002C14.5833 14.096 14.3793 14.6061 13.9713 15.0304C13.5633 15.4547 13.0729 15.6668 12.5 15.6668ZM12.5 9.16683C11.927 9.16683 11.4366 8.95468 11.0286 8.53037C10.6206 8.10607 10.4166 7.596 10.4166 7.00016C10.4166 6.40433 10.6206 5.89426 11.0286 5.46995C11.4366 5.04565 11.927 4.8335 12.5 4.8335C13.0729 4.8335 13.5633 5.04565 13.9713 5.46995C14.3793 5.89426 14.5833 6.40433 14.5833 7.00016C14.5833 7.596 14.3793 8.10607 13.9713 8.53037C13.5633 8.95468 13.0729 9.16683 12.5 9.16683Z" fill="#1C1B1F" fill-opacity="0.72"/>
</g>
</svg>
