<svg width="27" height="24" viewBox="0 0 27 24" fill="none" xmlns="http://www.w3.org/2000/svg">
<path d="M16.4063 22.9668C15.9112 23.4141 15.2976 23.6377 14.5657 23.6377C13.8337 23.6377 13.2202 23.4141 12.725 22.9668L1.35837 12.7002C1.12157 12.4863 0.9332 12.2335 0.79327 11.9418C0.653339 11.6502 0.583374 11.3391 0.583374 11.0085V2.66683C0.583374 2.02516 0.836325 1.47586 1.34223 1.01891C1.84813 0.561968 2.45629 0.333496 3.16671 0.333496H12.4021C12.7681 0.333496 13.1125 0.396691 13.4355 0.523079C13.7584 0.649468 14.0382 0.819607 14.275 1.0335L25.6417 11.3293C26.1368 11.7766 26.3844 12.3259 26.3844 12.9772C26.3844 13.6286 26.1368 14.1779 25.6417 14.6252L16.4063 22.9668ZM14.5657 21.3335L23.8011 12.9918L12.4021 2.66683H3.16671V11.0085L14.5657 21.3335ZM6.39587 7.3335C6.93407 7.3335 7.39153 7.16336 7.76827 6.82308C8.14501 6.4828 8.33337 6.06961 8.33337 5.5835C8.33337 5.09738 8.14501 4.68419 7.76827 4.34391C7.39153 4.00363 6.93407 3.8335 6.39587 3.8335C5.85768 3.8335 5.40021 4.00363 5.02348 4.34391C4.64674 4.68419 4.45837 5.09738 4.45837 5.5835C4.45837 6.06961 4.64674 6.4828 5.02348 6.82308C5.40021 7.16336 5.85768 7.3335 6.39587 7.3335Z" fill="#1C1B1F"/>
</svg>
