<svg width="31" height="30" viewBox="0 0 31 30" fill="none" xmlns="http://www.w3.org/2000/svg">
<mask id="mask0_3217_311" style="mask-type:alpha" maskUnits="userSpaceOnUse" x="0" y="0" width="31" height="30">
<rect x="1.5" y="1.5" width="28" height="27" fill="#5EFC26" stroke="#2684FC" stroke-width="3"/>
</mask>
<g mask="url(#mask0_3217_311)">
<mask id="path-2-inside-1_3217_311" fill="white">
<path d="M15.4999 27.5C13.7131 27.5 12.0339 27.1719 10.4624 26.5156C8.89089 25.8594 7.52388 24.9688 6.36138 23.8438C5.19888 22.7188 4.27856 21.3958 3.60044 19.875C2.92231 18.3542 2.58325 16.7292 2.58325 15C2.58325 13.2708 2.92231 11.6458 3.60044 10.125C4.27856 8.60417 5.19888 7.28125 6.36138 6.15625C7.52388 5.03125 8.89089 4.14063 10.4624 3.48438C12.0339 2.82812 13.7131 2.5 15.4999 2.5C16.8992 2.5 18.2232 2.69792 19.4718 3.09375C20.7204 3.48958 21.8721 4.04167 22.927 4.75L21.0541 6.59375C20.236 6.09375 19.3642 5.70313 18.4385 5.42188C17.5128 5.14062 16.5333 5 15.4999 5C12.6367 5 10.1987 5.97396 8.18586 7.92188C6.17301 9.86979 5.16659 12.2292 5.16659 15C5.16659 17.7708 6.17301 20.1302 8.18586 22.0781C10.1987 24.026 12.6367 25 15.4999 25C18.3631 25 20.8011 24.026 22.814 22.0781C24.8268 20.1302 25.8333 17.7708 25.8333 15C25.8333 14.625 25.8117 14.25 25.7687 13.875C25.7256 13.5 25.661 13.1354 25.5749 12.7812L27.6739 10.75C27.9107 11.4167 28.0937 12.1042 28.2228 12.8125C28.352 13.5208 28.4166 14.25 28.4166 15C28.4166 16.7292 28.0775 18.3542 27.3994 19.875C26.7213 21.3958 25.801 22.7188 24.6385 23.8438C23.476 24.9688 22.1089 25.8594 20.5374 26.5156C18.9659 27.1719 17.2867 27.5 15.4999 27.5ZM13.6916 20.75L8.202 15.4375L10.0103 13.6875L13.6916 17.25L26.6083 4.71875L28.4166 6.46875L13.6916 20.75Z"/>
</mask>
<path d="M15.4999 27.5C13.7131 27.5 12.0339 27.1719 10.4624 26.5156C8.89089 25.8594 7.52388 24.9688 6.36138 23.8438C5.19888 22.7188 4.27856 21.3958 3.60044 19.875C2.92231 18.3542 2.58325 16.7292 2.58325 15C2.58325 13.2708 2.92231 11.6458 3.60044 10.125C4.27856 8.60417 5.19888 7.28125 6.36138 6.15625C7.52388 5.03125 8.89089 4.14063 10.4624 3.48438C12.0339 2.82812 13.7131 2.5 15.4999 2.5C16.8992 2.5 18.2232 2.69792 19.4718 3.09375C20.7204 3.48958 21.8721 4.04167 22.927 4.75L21.0541 6.59375C20.236 6.09375 19.3642 5.70313 18.4385 5.42188C17.5128 5.14062 16.5333 5 15.4999 5C12.6367 5 10.1987 5.97396 8.18586 7.92188C6.17301 9.86979 5.16659 12.2292 5.16659 15C5.16659 17.7708 6.17301 20.1302 8.18586 22.0781C10.1987 24.026 12.6367 25 15.4999 25C18.3631 25 20.8011 24.026 22.814 22.0781C24.8268 20.1302 25.8333 17.7708 25.8333 15C25.8333 14.625 25.8117 14.25 25.7687 13.875C25.7256 13.5 25.661 13.1354 25.5749 12.7812L27.6739 10.75C27.9107 11.4167 28.0937 12.1042 28.2228 12.8125C28.352 13.5208 28.4166 14.25 28.4166 15C28.4166 16.7292 28.0775 18.3542 27.3994 19.875C26.7213 21.3958 25.801 22.7188 24.6385 23.8438C23.476 24.9688 22.1089 25.8594 20.5374 26.5156C18.9659 27.1719 17.2867 27.5 15.4999 27.5ZM13.6916 20.75L8.202 15.4375L10.0103 13.6875L13.6916 17.25L26.6083 4.71875L28.4166 6.46875L13.6916 20.75Z" fill="#5EFC26"/>
<path d="M22.927 4.75L25.0316 6.8879L27.6515 4.30885L24.5994 2.25941L22.927 4.75ZM21.0541 6.59375L19.4896 9.15349L21.4889 10.3755L23.1587 8.73165L21.0541 6.59375ZM25.5749 12.7812L23.4887 10.6254L22.2539 11.8204L22.6598 13.49L25.5749 12.7812ZM27.6739 10.75L30.5008 9.74584L28.9395 5.3504L25.5876 8.59419L27.6739 10.75ZM13.6916 20.75L11.6053 22.9058L13.6939 24.927L15.7802 22.9035L13.6916 20.75ZM8.202 15.4375L6.11574 13.2817L3.88807 15.4375L6.11574 17.5933L8.202 15.4375ZM10.0103 13.6875L12.0966 11.5317L10.0103 9.51273L7.92407 11.5317L10.0103 13.6875ZM13.6916 17.25L11.6053 19.4058L13.6942 21.4273L15.7805 19.4032L13.6916 17.25ZM26.6083 4.71875L28.6945 2.56294L26.6056 0.541456L24.5193 2.56555L26.6083 4.71875ZM28.4166 6.46875L30.5052 8.62227L32.7281 6.46639L30.5029 4.31294L28.4166 6.46875ZM15.4999 24.5C14.0901 24.5 12.8059 24.2431 11.6184 23.7473L9.3064 29.2839C11.262 30.1006 13.3361 30.5 15.4999 30.5V24.5ZM11.6184 23.7473C10.374 23.2277 9.32699 22.5389 8.44764 21.6879L4.27511 25.9996C5.72076 27.3986 7.40774 28.4911 9.3064 29.2839L11.6184 23.7473ZM8.44764 21.6879C7.56888 20.8375 6.86701 19.8343 6.3404 18.6533L0.860477 21.0967C1.69012 22.9574 2.82888 24.6 4.27511 25.9996L8.44764 21.6879ZM6.3404 18.6533C5.84034 17.5318 5.58325 16.3248 5.58325 15H-0.416748C-0.416748 17.1336 0.00429344 19.1766 0.860477 21.0967L6.3404 18.6533ZM5.58325 15C5.58325 13.6752 5.84034 12.4682 6.3404 11.3467L0.860477 8.90328C0.00429344 10.8234 -0.416748 12.8664 -0.416748 15H5.58325ZM6.3404 11.3467C6.86701 10.1657 7.56888 9.16248 8.44764 8.31206L4.27511 4.00044C2.82888 5.40002 1.69012 7.04264 0.860477 8.90328L6.3404 11.3467ZM8.44764 8.31206C9.32699 7.46107 10.374 6.77234 11.6184 6.2527L9.3064 0.71605C7.40774 1.50891 5.72076 2.60143 4.27511 4.00044L8.44764 8.31206ZM11.6184 6.2527C12.8059 5.75685 14.0901 5.5 15.4999 5.5V-0.5C13.3361 -0.5 11.262 -0.1006 9.3064 0.71605L11.6184 6.2527ZM15.4999 5.5C16.6126 5.5 17.6292 5.65675 18.5652 5.95349L20.3784 0.234013C18.8172 -0.260921 17.1858 -0.5 15.4999 -0.5V5.5ZM18.5652 5.95349C19.5508 6.26593 20.4434 6.6959 21.2546 7.24059L24.5994 2.25941C23.3009 1.38743 21.8901 0.713241 20.3784 0.234013L18.5652 5.95349ZM20.8224 2.6121L18.9495 4.45585L23.1587 8.73165L25.0316 6.8879L20.8224 2.6121ZM22.6186 4.03401C21.5819 3.40034 20.4771 2.90585 19.3106 2.55144L17.5663 8.29231C18.2512 8.5004 18.8902 8.78716 19.4896 9.15349L22.6186 4.03401ZM19.3106 2.55144C18.0835 2.17863 16.8087 2 15.4999 2V8C16.2579 8 16.942 8.10262 17.5663 8.29231L19.3106 2.55144ZM15.4999 2C11.8774 2 8.68565 3.26343 6.09959 5.76607L10.2721 10.0777C11.7118 8.68448 13.3961 8 15.4999 8V2ZM6.09959 5.76607C3.50993 8.27219 2.16659 11.4065 2.16659 15H8.16659C8.16659 13.0518 8.83609 11.4674 10.2721 10.0777L6.09959 5.76607ZM2.16659 15C2.16659 18.5935 3.50993 21.7278 6.09959 24.2339L10.2721 19.9223C8.83609 18.5326 8.16659 16.9482 8.16659 15H2.16659ZM6.09959 24.2339C8.68565 26.7366 11.8774 28 15.4999 28V22C13.3961 22 11.7118 21.3155 10.2721 19.9223L6.09959 24.2339ZM15.4999 28C19.1225 28 22.3142 26.7366 24.9002 24.2339L20.7277 19.9223C19.2881 21.3155 17.6038 22 15.4999 22V28ZM24.9002 24.2339C27.4899 21.7278 28.8333 18.5935 28.8333 15H22.8333C22.8333 16.9482 22.1638 18.5326 20.7277 19.9223L24.9002 24.2339ZM28.8333 15C28.8333 14.5099 28.8051 14.0207 28.7491 13.5328L22.7883 14.2172C22.8183 14.4793 22.8333 14.7401 22.8333 15H28.8333ZM28.7491 13.5328C28.6924 13.0388 28.6065 12.5516 28.49 12.0725L22.6598 13.49C22.7156 13.7193 22.7589 13.9612 22.7883 14.2172L28.7491 13.5328ZM27.6612 14.9371L29.7601 12.9058L25.5876 8.59419L23.4887 10.6254L27.6612 14.9371ZM24.8469 11.7542C25.0289 12.2664 25.1707 12.7979 25.2715 13.3507L31.1742 12.2743C31.0166 11.4104 30.7925 10.5669 30.5008 9.74584L24.8469 11.7542ZM25.2715 13.3507C25.367 13.8742 25.4166 14.423 25.4166 15H31.4166C31.4166 14.077 31.337 13.1674 31.1742 12.2743L25.2715 13.3507ZM25.4166 15C25.4166 16.3248 25.1595 17.5318 24.6594 18.6533L30.1394 21.0967C30.9955 19.1766 31.4166 17.1336 31.4166 15H25.4166ZM24.6594 18.6533C24.1328 19.8343 23.431 20.8375 22.5522 21.6879L26.7247 25.9996C28.171 24.6 29.3097 22.9574 30.1394 21.0967L24.6594 18.6533ZM22.5522 21.6879C21.6728 22.5389 20.6258 23.2277 19.3814 23.7473L21.6934 29.2839C23.5921 28.4911 25.2791 27.3986 26.7247 25.9996L22.5522 21.6879ZM19.3814 23.7473C18.194 24.2431 16.9097 24.5 15.4999 24.5V30.5C17.6637 30.5 19.7378 30.1006 21.6934 29.2839L19.3814 23.7473ZM15.7779 18.5942L10.2883 13.2817L6.11574 17.5933L11.6053 22.9058L15.7779 18.5942ZM10.2883 17.5933L12.0966 15.8433L7.92407 11.5317L6.11574 13.2817L10.2883 17.5933ZM7.92407 15.8433L11.6053 19.4058L15.7779 15.0942L12.0966 11.5317L7.92407 15.8433ZM15.7805 19.4032L28.6972 6.87195L24.5193 2.56555L11.6026 15.0968L15.7805 19.4032ZM24.522 6.87456L26.3303 8.62456L30.5029 4.31294L28.6945 2.56294L24.522 6.87456ZM26.328 4.31523L11.603 18.5965L15.7802 22.9035L30.5052 8.62227L26.328 4.31523Z" fill="#2684FC" mask="url(#path-2-inside-1_3217_311)"/>
</g>
</svg>
