<svg width="34" height="34" viewBox="0 0 34 34" fill="none" xmlns="http://www.w3.org/2000/svg">
<mask id="mask0_22_60" style="mask-type:alpha" maskUnits="userSpaceOnUse" x="0" y="0" width="34" height="34">
<rect width="34" height="34" fill="#D9D9D9"/>
</mask>
<g mask="url(#mask0_22_60)">
<path d="M8.50008 28.3332C7.72091 28.3332 7.0539 28.0557 6.49904 27.5009C5.94418 26.946 5.66675 26.279 5.66675 25.4998C5.66675 24.7207 5.94418 24.0537 6.49904 23.4988C7.0539 22.9439 7.72091 22.6665 8.50008 22.6665C9.27925 22.6665 9.94626 22.9439 10.5011 23.4988C11.056 24.0537 11.3334 24.7207 11.3334 25.4998C11.3334 26.279 11.056 26.946 10.5011 27.5009C9.94626 28.0557 9.27925 28.3332 8.50008 28.3332ZM17.0001 28.3332C16.2209 28.3332 15.5539 28.0557 14.999 27.5009C14.4442 26.946 14.1667 26.279 14.1667 25.4998C14.1667 24.7207 14.4442 24.0537 14.999 23.4988C15.5539 22.9439 16.2209 22.6665 17.0001 22.6665C17.7792 22.6665 18.4463 22.9439 19.0011 23.4988C19.556 24.0537 19.8334 24.7207 19.8334 25.4998C19.8334 26.279 19.556 26.946 19.0011 27.5009C18.4463 28.0557 17.7792 28.3332 17.0001 28.3332ZM25.5001 28.3332C24.7209 28.3332 24.0539 28.0557 23.499 27.5009C22.9442 26.946 22.6667 26.279 22.6667 25.4998C22.6667 24.7207 22.9442 24.0537 23.499 23.4988C24.0539 22.9439 24.7209 22.6665 25.5001 22.6665C26.2792 22.6665 26.9463 22.9439 27.5011 23.4988C28.056 24.0537 28.3334 24.7207 28.3334 25.4998C28.3334 26.279 28.056 26.946 27.5011 27.5009C26.9463 28.0557 26.2792 28.3332 25.5001 28.3332ZM8.50008 19.8332C7.72091 19.8332 7.0539 19.5557 6.49904 19.0009C5.94418 18.446 5.66675 17.779 5.66675 16.9998C5.66675 16.2207 5.94418 15.5537 6.49904 14.9988C7.0539 14.4439 7.72091 14.1665 8.50008 14.1665C9.27925 14.1665 9.94626 14.4439 10.5011 14.9988C11.056 15.5537 11.3334 16.2207 11.3334 16.9998C11.3334 17.779 11.056 18.446 10.5011 19.0009C9.94626 19.5557 9.27925 19.8332 8.50008 19.8332ZM17.0001 19.8332C16.2209 19.8332 15.5539 19.5557 14.999 19.0009C14.4442 18.446 14.1667 17.779 14.1667 16.9998C14.1667 16.2207 14.4442 15.5537 14.999 14.9988C15.5539 14.4439 16.2209 14.1665 17.0001 14.1665C17.7792 14.1665 18.4463 14.4439 19.0011 14.9988C19.556 15.5537 19.8334 16.2207 19.8334 16.9998C19.8334 17.779 19.556 18.446 19.0011 19.0009C18.4463 19.5557 17.7792 19.8332 17.0001 19.8332ZM25.5001 19.8332C24.7209 19.8332 24.0539 19.5557 23.499 19.0009C22.9442 18.446 22.6667 17.779 22.6667 16.9998C22.6667 16.2207 22.9442 15.5537 23.499 14.9988C24.0539 14.4439 24.7209 14.1665 25.5001 14.1665C26.2792 14.1665 26.9463 14.4439 27.5011 14.9988C28.056 15.5537 28.3334 16.2207 28.3334 16.9998C28.3334 17.779 28.056 18.446 27.5011 19.0009C26.9463 19.5557 26.2792 19.8332 25.5001 19.8332ZM8.50008 11.3332C7.72091 11.3332 7.0539 11.0557 6.49904 10.5009C5.94418 9.94602 5.66675 9.279 5.66675 8.49984C5.66675 7.72067 5.94418 7.05366 6.49904 6.4988C7.0539 5.94393 7.72091 5.6665 8.50008 5.6665C9.27925 5.6665 9.94626 5.94393 10.5011 6.4988C11.056 7.05366 11.3334 7.72067 11.3334 8.49984C11.3334 9.279 11.056 9.94602 10.5011 10.5009C9.94626 11.0557 9.27925 11.3332 8.50008 11.3332ZM17.0001 11.3332C16.2209 11.3332 15.5539 11.0557 14.999 10.5009C14.4442 9.94602 14.1667 9.279 14.1667 8.49984C14.1667 7.72067 14.4442 7.05366 14.999 6.4988C15.5539 5.94393 16.2209 5.6665 17.0001 5.6665C17.7792 5.6665 18.4463 5.94393 19.0011 6.4988C19.556 7.05366 19.8334 7.72067 19.8334 8.49984C19.8334 9.279 19.556 9.94602 19.0011 10.5009C18.4463 11.0557 17.7792 11.3332 17.0001 11.3332ZM25.5001 11.3332C24.7209 11.3332 24.0539 11.0557 23.499 10.5009C22.9442 9.94602 22.6667 9.279 22.6667 8.49984C22.6667 7.72067 22.9442 7.05366 23.499 6.4988C24.0539 5.94393 24.7209 5.6665 25.5001 5.6665C26.2792 5.6665 26.9463 5.94393 27.5011 6.4988C28.056 7.05366 28.3334 7.72067 28.3334 8.49984C28.3334 9.279 28.056 9.94602 27.5011 10.5009C26.9463 11.0557 26.2792 11.3332 25.5001 11.3332Z" fill="#1C1B1F" fill-opacity="0.72"/>
</g>
</svg>
