<svg width="41" height="42" viewBox="0 0 41 42" fill="none" xmlns="http://www.w3.org/2000/svg">
<mask id="mask0_22_57" style="mask-type:alpha" maskUnits="userSpaceOnUse" x="0" y="0" width="41" height="42">
<rect y="0.5" width="41" height="41" fill="#D9D9D9"/>
</mask>
<g mask="url(#mask0_22_57)">
<path d="M20.4147 31.2498C21.0126 31.2498 21.518 31.0434 21.9308 30.6306C22.3437 30.2177 22.5501 29.7123 22.5501 29.1144C22.5501 28.5165 22.3437 28.0111 21.9308 27.5983C21.518 27.1854 21.0126 26.979 20.4147 26.979C19.8167 26.979 19.3114 27.1854 18.8985 27.5983C18.4857 28.0111 18.2792 28.5165 18.2792 29.1144C18.2792 29.7123 18.4857 30.2177 18.8985 30.6306C19.3114 31.0434 19.8167 31.2498 20.4147 31.2498ZM18.8772 24.6728H22.0376C22.0376 23.7332 22.1444 22.9929 22.3579 22.4519C22.5714 21.9109 23.1765 21.1707 24.173 20.2311C24.9133 19.4908 25.497 18.7861 25.924 18.117C26.3511 17.4479 26.5647 16.6436 26.5647 15.704C26.5647 14.1096 25.981 12.8853 24.8136 12.0311C23.6463 11.1769 22.2654 10.7498 20.6709 10.7498C19.048 10.7498 17.7312 11.1769 16.7204 12.0311C15.7096 12.8853 15.0049 13.9103 14.6063 15.1061L17.4251 16.2165C17.5674 15.704 17.8878 15.1488 18.386 14.5509C18.8843 13.953 19.6459 13.654 20.6709 13.654C21.582 13.654 22.2654 13.9031 22.7209 14.4014C23.1765 14.8997 23.4042 15.4478 23.4042 16.0457C23.4042 16.6151 23.2334 17.149 22.8918 17.6472C22.5501 18.1455 22.123 18.6082 21.6105 19.0353C20.3577 20.1457 19.589 20.9856 19.3042 21.555C19.0195 22.1245 18.8772 23.1637 18.8772 24.6728ZM20.5001 38.0832C18.1369 38.0832 15.9161 37.6347 13.8376 36.7379C11.7591 35.841 9.95112 34.6238 8.41362 33.0863C6.87612 31.5488 5.65894 29.7408 4.76206 27.6623C3.86519 25.5839 3.41675 23.363 3.41675 20.9998C3.41675 18.6366 3.86519 16.4158 4.76206 14.3373C5.65894 12.2589 6.87612 10.4509 8.41362 8.91338C9.95112 7.37588 11.7591 6.15869 13.8376 5.26182C15.9161 4.36494 18.1369 3.9165 20.5001 3.9165C22.8633 3.9165 25.0841 4.36494 27.1626 5.26182C29.2411 6.15869 31.049 7.37588 32.5865 8.91338C34.124 10.4509 35.3412 12.2589 36.2381 14.3373C37.135 16.4158 37.5834 18.6366 37.5834 20.9998C37.5834 23.363 37.135 25.5839 36.2381 27.6623C35.3412 29.7408 34.124 31.5488 32.5865 33.0863C31.049 34.6238 29.2411 35.841 27.1626 36.7379C25.0841 37.6347 22.8633 38.0832 20.5001 38.0832ZM20.5001 34.6665C24.3154 34.6665 27.547 33.3425 30.1949 30.6946C32.8428 28.0467 34.1667 24.8151 34.1667 20.9998C34.1667 17.1846 32.8428 13.953 30.1949 11.305C27.547 8.65713 24.3154 7.33317 20.5001 7.33317C16.6848 7.33317 13.4532 8.65713 10.8053 11.305C8.15737 13.953 6.83341 17.1846 6.83341 20.9998C6.83341 24.8151 8.15737 28.0467 10.8053 30.6946C13.4532 33.3425 16.6848 34.6665 20.5001 34.6665Z" fill="#1C1B1F" fill-opacity="0.72"/>
</g>
</svg>
