<svg width="42" height="32" viewBox="0 0 42 32" fill="none" xmlns="http://www.w3.org/2000/svg">
<path d="M2.86453 32.0001H9.5427V15.5278L0 8.25098V29.091C0 30.7038 1.28543 32.0001 2.86453 32.0001Z" fill="#4285F4"/>
<path d="M32.4573 32.0001H39.1354C40.7145 32.0001 42 30.6946 42 29.091V8.25098L32.4573 15.5187V32.0001Z" fill="#34A853"/>
<path d="M32.4573 2.91922V15.5185L42 8.25085V4.36959C42 0.778235 37.9599 -1.27778 35.129 0.880702L32.4573 2.91922Z" fill="#FBBC04"/>
<path d="M9.54272 15.5279V2.91943L21 11.6466L32.4573 2.91943V15.5279L21 24.246L9.54272 15.5279Z" fill="#EA4335"/>
<path d="M0 4.37789V8.25915L9.5427 15.5268V2.91919L6.87094 0.889002C4.04004 -1.26948 0 0.786535 0 4.37789Z" fill="#C5221F"/>
</svg>
