<svg width="34" height="37" viewBox="0 0 34 37" fill="none" xmlns="http://www.w3.org/2000/svg">
<mask id="mask0_22_48" style="mask-type:alpha" maskUnits="userSpaceOnUse" x="0" y="0" width="34" height="37">
<rect width="34" height="37" fill="#D9D9D9"/>
</mask>
<g mask="url(#mask0_22_48)">
<path d="M27.7667 32.375L18.8417 22.6625C18.1333 23.2792 17.3187 23.7674 16.3979 24.1271C15.4771 24.4868 14.4972 24.6667 13.4583 24.6667C10.8847 24.6667 8.7066 23.6967 6.92396 21.7568C5.14132 19.8168 4.25 17.4465 4.25 14.6458C4.25 11.8451 5.14132 9.47483 6.92396 7.5349C8.7066 5.59497 10.8847 4.625 13.4583 4.625C16.0319 4.625 18.2101 5.59497 19.9927 7.5349C21.7753 9.47483 22.6667 11.8451 22.6667 14.6458C22.6667 15.7764 22.5014 16.8427 22.1708 17.8448C21.8403 18.8469 21.3917 19.7333 20.825 20.5042L29.75 30.2167L27.7667 32.375ZM13.4583 21.5833C15.2292 21.5833 16.7344 20.9089 17.974 19.5599C19.2135 18.2109 19.8333 16.5729 19.8333 14.6458C19.8333 12.7188 19.2135 11.0807 17.974 9.73177C16.7344 8.38281 15.2292 7.70833 13.4583 7.70833C11.6875 7.70833 10.1823 8.38281 8.94271 9.73177C7.70312 11.0807 7.08333 12.7188 7.08333 14.6458C7.08333 16.5729 7.70312 18.2109 8.94271 19.5599C10.1823 20.9089 11.6875 21.5833 13.4583 21.5833Z" fill="#1C1B1F" fill-opacity="0.72"/>
</g>
</svg>
