<svg width="38" height="38" viewBox="0 0 38 38" fill="none" xmlns="http://www.w3.org/2000/svg">
<mask id="mask0_22_63" style="mask-type:alpha" maskUnits="userSpaceOnUse" x="0" y="0" width="38" height="38">
<rect width="38" height="38" fill="#D9D9D9"/>
</mask>
<g mask="url(#mask0_22_63)">
<path d="M14.6457 34.8332L14.0124 29.7665C13.6693 29.6346 13.3461 29.4762 13.0426 29.2915C12.7391 29.1068 12.4423 28.9089 12.152 28.6978L7.44157 30.6769L3.0874 23.1561L7.16449 20.0686C7.1381 19.8839 7.1249 19.7057 7.1249 19.5342V18.4655C7.1249 18.2939 7.1381 18.1158 7.16449 17.9311L3.0874 14.8436L7.44157 7.32275L12.152 9.30192C12.4423 9.09081 12.7457 8.89289 13.0624 8.70817C13.3791 8.52345 13.6957 8.36512 14.0124 8.23317L14.6457 3.1665H23.3541L23.9874 8.23317C24.3305 8.36512 24.6537 8.52345 24.9572 8.70817C25.2607 8.89289 25.5575 9.09081 25.8478 9.30192L30.5582 7.32275L34.9124 14.8436L30.8353 17.9311C30.8617 18.1158 30.8749 18.2939 30.8749 18.4655V19.5342C30.8749 19.7057 30.8485 19.8839 30.7957 20.0686L34.8728 23.1561L30.5187 30.6769L25.8478 28.6978C25.5575 28.9089 25.2541 29.1068 24.9374 29.2915C24.6207 29.4762 24.3041 29.6346 23.9874 29.7665L23.3541 34.8332H14.6457ZM19.0791 24.5415C20.6096 24.5415 21.9159 24.0005 22.9978 22.9186C24.0798 21.8366 24.6207 20.5304 24.6207 18.9998C24.6207 17.4693 24.0798 16.163 22.9978 15.0811C21.9159 13.9991 20.6096 13.4582 19.0791 13.4582C17.5221 13.4582 16.2093 13.9991 15.1405 15.0811C14.0718 16.163 13.5374 17.4693 13.5374 18.9998C13.5374 20.5304 14.0718 21.8366 15.1405 22.9186C16.2093 24.0005 17.5221 24.5415 19.0791 24.5415ZM19.0791 21.3748C18.4193 21.3748 17.8586 21.1439 17.3968 20.6821C16.935 20.2203 16.7041 19.6596 16.7041 18.9998C16.7041 18.3401 16.935 17.7794 17.3968 17.3175C17.8586 16.8557 18.4193 16.6248 19.0791 16.6248C19.7388 16.6248 20.2996 16.8557 20.7614 17.3175C21.2232 17.7794 21.4541 18.3401 21.4541 18.9998C21.4541 19.6596 21.2232 20.2203 20.7614 20.6821C20.2996 21.1439 19.7388 21.3748 19.0791 21.3748ZM17.4166 31.6665H20.5437L21.0978 27.4707C21.9159 27.2596 22.6746 26.9495 23.3739 26.5405C24.0732 26.1314 24.7131 25.6366 25.2937 25.0561L29.2124 26.679L30.7562 23.9873L27.352 21.4144C27.4839 21.045 27.5763 20.6557 27.6291 20.2467C27.6818 19.8377 27.7082 19.4221 27.7082 18.9998C27.7082 18.5776 27.6818 18.162 27.6291 17.753C27.5763 17.3439 27.4839 16.9547 27.352 16.5853L30.7562 14.0123L29.2124 11.3207L25.2937 12.9832C24.7131 12.3762 24.0732 11.8682 23.3739 11.4592C22.6746 11.0502 21.9159 10.7401 21.0978 10.529L20.5832 6.33317H17.4562L16.902 10.529C16.0839 10.7401 15.3252 11.0502 14.6259 11.4592C13.9266 11.8682 13.2867 12.363 12.7062 12.9436L8.7874 11.3207L7.24365 14.0123L10.6478 16.5457C10.5159 16.9415 10.4235 17.3373 10.3707 17.7332C10.318 18.129 10.2916 18.5512 10.2916 18.9998C10.2916 19.4221 10.318 19.8311 10.3707 20.2269C10.4235 20.6228 10.5159 21.0186 10.6478 21.4144L7.24365 23.9873L8.7874 26.679L12.7062 25.0165C13.2867 25.6234 13.9266 26.1314 14.6259 26.5405C15.3252 26.9495 16.0839 27.2596 16.902 27.4707L17.4166 31.6665Z" fill="#1C1B1F" fill-opacity="0.72"/>
</g>
</svg>
